<svg width="250" height="225" viewBox="0 0 250 225" fill="none" xmlns="http://www.w3.org/2000/svg">
<rect y="1" width="225" height="200" fill="#001BB2"/>
<rect x="25" y="25" width="225" height="200" fill="#20D6AC"/>
<rect x="25" y="25" width="200" height="175" fill="#080808"/>
<path d="M65.9688 138V150H51.7188V138H65.9688ZM92.125 138V150H77.875V138H92.125ZM118.281 138V150H104.031V138H118.281ZM144.438 138V150H130.188V138H144.438ZM170.594 138V150H156.344V138H170.594ZM196.75 138V150H182.5V138H196.75Z" fill="#001BB2"/>
<path d="M66.2494 84.3438V130H56.0306V84.3438H66.2494ZM66.2494 64.1875V73.1875H56.0306V64.1875H66.2494ZM116.25 83.5C121.125 83.5 124.859 84.9688 127.453 87.9062C130.078 90.8438 131.391 95.3125 131.391 101.312V130H121.125V101.406C121.125 98 120.422 95.5625 119.016 94.0938C117.641 92.625 115.469 91.8906 112.5 91.8906C108.562 91.8906 105.484 93.5469 103.266 96.8594V130H93V84.3438L102.375 84.3906L102.984 91C106.141 86 110.562 83.5 116.25 83.5ZM170.282 130.984C165.563 130.984 161.923 129.781 159.36 127.375C156.798 124.938 155.516 121.531 155.516 117.156C155.516 112.75 157.251 109.328 160.719 106.891C164.188 104.453 169.11 103.234 175.485 103.234H183.454V99.2031C183.454 96.7969 182.751 94.9219 181.344 93.5781C179.938 92.2344 177.985 91.5625 175.485 91.5625C173.016 91.5625 171.079 92.125 169.673 93.25C168.298 94.3438 167.61 95.7969 167.61 97.6094H157.719L157.673 97.375C157.485 93.6562 159.126 90.4375 162.594 87.7188C166.063 84.9688 170.516 83.5938 175.954 83.5938C181.391 83.5938 185.704 84.9688 188.891 87.7188C192.079 90.4375 193.673 94.2969 193.673 99.2969V119.594C193.673 123.344 194.219 126.844 195.313 130.094L184.907 130.141C184.157 127.766 183.688 125.531 183.501 123.438C182.001 125.688 180.11 127.516 177.829 128.922C175.548 130.297 173.032 130.984 170.282 130.984ZM165.735 117.062H165.782C165.782 118.844 166.344 120.234 167.469 121.234C168.626 122.234 170.36 122.734 172.673 122.734C174.985 122.734 177.173 122.109 179.235 120.859C181.298 119.609 182.688 118.125 183.407 116.406V109.656H175.251C172.376 109.656 170.063 110.375 168.313 111.812C166.594 113.219 165.735 114.969 165.735 117.062Z" fill="#20D6AC"/>
</svg>
